<?xml version="1.0" encoding="UTF-8" standalone="no"?><!DOCTYPE svg PUBLIC "-//W3C//DTD SVG 1.1//EN" "http://www.w3.org/Graphics/SVG/1.1/DTD/svg11.dtd"><svg width="100%" height="100%" viewBox="0 0 2480 708" version="1.1" xmlns="http://www.w3.org/2000/svg" xmlns:xlink="http://www.w3.org/1999/xlink" xml:space="preserve" xmlns:serif="http://www.serif.com/" style="fill-rule:evenodd;clip-rule:evenodd;stroke-linejoin:round;stroke-miterlimit:2;"><g><g><g><path d="M169.003,432.988c-3.464,0 -5.889,-1.045 -7.275,-3.136c-1.386,-2.091 -2.079,-4.33 -2.079,-6.719c0.346,-5.077 1.732,-5.691 4.157,-6.288c2.425,-0.597 5.37,-0.896 8.834,-0.896c11.086,0 18.881,-1.717 23.384,-5.152c4.504,-3.434 7.362,-9.988 8.574,-15.214c1.213,-5.226 1.819,-8.453 1.819,-14.127l0,-222.805l-35.856,0c-11.779,0.299 -20.959,2.464 -27.541,6.496c-6.582,4.032 -11.432,13.56 -14.55,22.071c-3.118,8.511 -5.889,15.338 -8.314,28.777c-0.346,2.688 -2.512,4.704 -6.496,6.048c-3.984,1.344 -7.881,2.016 -11.692,2.016c-2.425,0 -5.11,-0.747 -8.055,-2.24c-2.945,-1.493 -4.417,-3.733 -4.417,-6.719l1.559,-58.177c0,-4.181 1.386,-7.018 4.157,-8.511c2.771,-1.493 6.063,-2.24 9.873,-2.24l254.109,0c3.811,0 7.015,0.747 9.614,2.24c2.598,1.493 3.897,4.33 3.897,8.511l2.079,58.177c0,2.986 -1.472,5.226 -4.417,6.719c-2.945,1.493 -5.803,2.24 -8.574,2.24c-3.464,0 -7.102,-0.672 -10.913,-2.016c-3.811,-1.344 -6.063,-3.36 -6.755,-6.048c-2.425,-13.439 -5.283,-20.265 -8.574,-28.777c-3.291,-8.511 -8.141,-18.04 -14.55,-22.071c-6.409,-4.032 -15.676,-6.197 -27.801,-6.496l-35.336,0l0,222.805c0.346,5.674 1.039,11.124 2.079,16.351c1.039,5.226 3.897,9.557 8.574,12.991c4.677,3.434 12.385,5.152 23.124,5.152c3.464,0 6.409,0.299 8.834,0.896c2.425,0.597 3.811,1.211 4.157,6.288c0,2.389 -0.693,4.629 -2.079,6.719c-1.386,2.091 -3.811,3.136 -7.275,3.136c-11.086,-0.597 -21.565,-0.971 -31.439,-1.12c-9.873,-0.149 -19.833,-0.224 -29.88,-0.224c-20.786,0 -42.438,0.448 -64.956,1.344Z" style="fill:#6abccc;"/><path d="M479.908,433.957c-26.675,0 -43.695,-4.928 -61.882,-14.783c-18.188,-9.855 -31.785,-22.996 -40.793,-39.421c-9.007,-16.425 -13.511,-34.344 -13.511,-53.756c0,-13.14 2.685,-25.907 8.055,-38.301c5.37,-12.394 13.078,-23.742 23.124,-34.045c10.047,-10.303 22.172,-18.441 36.375,-24.414c14.204,-5.973 24.901,-8.959 42.915,-8.959c31.872,0 53.091,7.093 69.2,21.278c16.109,14.186 25.376,32.179 27.801,53.98c0,10.453 -3.378,17.321 -10.133,20.606c-6.755,3.285 -15.503,4.928 -26.242,4.928l-123.504,0c0,17.321 2.771,32.776 8.314,46.365c5.543,13.588 14.29,24.34 26.242,32.254c2.043,1.353 4.2,2.59 6.471,3.712c11.014,5.44 24.706,8.159 41.077,8.159c14.55,0 27.022,-2.688 37.415,-8.063c10.393,-5.376 20.44,-14.783 30.14,-28.222c2.771,-2.986 6.582,-3.136 11.432,-0.448c2.771,1.195 4.504,3.061 5.196,5.6c0.693,2.538 0.346,4.704 -1.039,6.496c-10.739,14.634 -24.25,26.131 -40.533,34.493c-16.282,8.362 -34.99,12.543 -56.122,12.543Zm-68.594,-129.91l84.703,0c8.314,0 14.983,-1.419 20.007,-4.256c5.023,-2.837 7.708,-7.69 8.055,-14.559c0,-12.842 -4.071,-24.265 -12.212,-34.269c-8.141,-10.005 -20.699,-15.007 -37.675,-15.007c-17.322,0 -31.785,5.973 -43.391,17.919c-11.606,11.946 -18.101,28.67 -19.487,50.172Z" style="fill:#6abccc;"/><path d="M1803.787,434.378c-26.675,0 -43.695,-4.928 -61.882,-14.783c-18.188,-9.855 -31.785,-22.996 -40.793,-39.421c-9.007,-16.425 -13.511,-34.344 -13.511,-53.756c0,-13.14 2.685,-25.907 8.055,-38.301c5.37,-12.394 13.078,-23.742 23.124,-34.045c10.047,-10.303 22.172,-18.441 36.375,-24.414c14.204,-5.973 24.901,-8.959 42.915,-8.959c31.872,0 53.091,7.093 69.2,21.278c16.109,14.186 25.376,32.179 27.801,53.98c0,10.453 -3.378,17.321 -10.133,20.606c-6.755,3.285 -15.503,4.928 -26.242,4.928l-123.504,0c0,0 2.771,32.776 8.314,46.365c5.543,13.588 14.29,24.34 26.242,32.254c11.952,7.914 27.801,11.871 47.548,11.871c14.55,0 27.022,-2.688 37.415,-8.063c10.393,-5.376 20.44,-14.783 30.14,-28.222c2.771,-2.986 6.582,-3.136 11.432,-0.448c2.771,1.195 4.504,3.061 5.196,5.6c0.693,2.538 0.346,4.704 -1.039,6.496c-10.739,14.634 -24.25,26.131 -40.533,34.493c-16.282,8.362 -34.99,12.543 -56.122,12.543Zm-68.594,-129.91l84.703,0c8.314,0 14.983,-1.419 20.007,-4.256c5.023,-2.837 7.708,-7.69 8.055,-14.559c0,-12.842 -4.071,-24.265 -12.212,-34.269c-8.141,-10.005 -20.699,-15.007 -37.675,-15.007c-17.322,0 -31.785,5.973 -43.391,17.919c-11.606,11.946 -18.101,28.67 -19.487,50.172Z" style="fill:#6abccc;"/><path d="M698.812,434.348c-26.675,0 -48.934,-4.106 -66.775,-12.319c-17.841,-8.213 -26.762,-20.084 -26.762,-35.613c0,-8.661 3.031,-15.679 9.094,-21.054c6.063,-5.376 13.944,-8.063 23.644,-8.063c6.236,0 11.346,1.419 15.33,4.256c3.984,2.837 5.976,4.853 5.976,6.048c0,0.896 -1.992,2.912 -5.976,6.048c-3.984,3.136 -5.976,8.138 -5.976,15.007c0,8.362 4.59,15.306 13.771,20.83c9.18,5.525 23.124,8.287 41.832,8.287c16.282,0 29.014,-3.061 38.194,-9.183c9.18,-6.122 13.771,-14.708 13.771,-25.758c0,-8.959 -3.378,-15.903 -10.133,-20.83c-6.755,-4.928 -15.416,-8.885 -25.982,-11.871c-10.566,-2.986 -21.825,-5.973 -33.777,-8.959c-11.952,-2.986 -23.298,-6.719 -34.037,-11.199c-10.739,-4.48 -19.487,-10.677 -26.242,-18.591c-6.755,-7.914 -10.133,-18.441 -10.133,-31.582c0,-13.439 4.677,-24.489 14.031,-33.15c9.354,-8.661 21.306,-15.156 35.856,-19.487c14.55,-4.33 29.274,-6.496 44.17,-6.496c12.818,0 24.943,1.568 36.375,4.704c11.432,3.136 20.873,7.839 28.321,14.111c7.448,6.272 11.172,14.186 11.172,23.742c0,7.466 -2.771,14.186 -8.314,20.158c-5.543,5.973 -13.164,8.959 -22.865,8.959c-6.236,0 -11.346,-1.419 -15.33,-4.256c-3.984,-2.837 -5.976,-4.853 -5.976,-6.048c0,-0.597 1.299,-1.717 3.897,-3.36c2.598,-1.643 5.11,-3.882 7.535,-6.719c2.425,-2.837 3.638,-6.496 3.638,-10.975c-0.693,-8.661 -5.543,-15.082 -14.55,-19.263c-9.007,-4.181 -19.054,-6.272 -30.14,-6.272c-12.125,0 -23.384,2.538 -33.777,7.615c-10.393,5.077 -15.589,12.394 -15.589,21.95c0,8.661 2.165,15.38 6.496,20.158c4.33,4.778 11.259,8.885 20.786,12.319c9.527,3.434 21.912,7.242 37.155,11.423c15.243,4.181 28.667,8.511 40.273,12.991c11.606,4.48 20.613,10.378 27.022,17.695c6.409,7.317 9.614,17.247 9.614,29.79c0,12.543 -4.157,23.742 -12.472,33.597c-8.314,9.855 -19.66,17.545 -34.037,23.07c-14.377,5.525 -30.746,8.287 -49.107,8.287Z" style="fill:#6abccc;"/><path d="M910.795,434.866c-10.393,0 -20.266,-2.24 -29.62,-6.719c-9.354,-4.48 -17.062,-11.348 -23.124,-20.606c-6.063,-9.258 -9.094,-20.905 -9.094,-34.941l0,-131.702l-30.14,0.896c-2.425,0 -4.244,-0.821 -5.456,-2.464c-1.213,-1.643 -1.819,-3.509 -1.819,-5.6c0,-5.973 6.067,-8.269 10.917,-9.165c12.818,-2.091 25.677,-3.821 32.259,-8.749c6.582,-4.928 11.692,-10.826 15.33,-17.695c3.638,-6.869 8.748,-23.537 8.748,-23.537c0,0 0.613,-4.768 2.903,-6.482c1.23,-0.921 2.391,-1.12 4.816,-1.12c1.221,0 3.154,-0.07 4.342,0.016c3.288,0.24 4.868,3.866 4.868,6.255l-0.534,48.171l57.695,-0.239c3.118,-0.299 5.196,0.448 6.236,2.24c1.039,1.792 1.559,3.882 1.559,6.272c0,2.986 -0.606,5.973 -1.819,8.959c-1.213,2.986 -2.685,4.48 -4.417,4.48l-58.201,0.506l0,134.332c0,8.661 2.165,16.575 6.496,23.742c4.33,7.167 5.652,10.751 17.084,10.751c3.811,0 8.141,-0.299 12.991,-0.896c4.85,-0.597 10.047,-1.941 15.589,-4.032c1.386,-0.597 2.771,-1.12 4.157,-1.568c1.386,-0.448 2.771,-0.672 4.157,-0.672c2.771,0 4.85,0.971 6.236,2.912c1.386,1.941 2.598,3.957 3.638,6.048c1.039,2.688 0.173,4.778 -2.598,6.272c-10.739,5.973 -20.613,9.855 -29.62,11.647c-9.007,1.792 -12.494,2.688 -23.58,2.688Z" style="fill:#6abccc;"/><path d="M2289.315,434.866c-10.393,0 -20.266,-2.24 -29.62,-6.719c-9.354,-4.48 -17.062,-11.348 -23.124,-20.606c-6.063,-9.258 -9.094,-20.905 -9.094,-34.941l0,-131.702l-30.14,0.896c-2.425,0 -4.244,-0.821 -5.456,-2.464c-1.213,-1.643 -1.819,-3.509 -1.819,-5.6c0,-5.973 6.067,-8.269 10.917,-9.165c12.818,-2.091 25.677,-3.821 32.259,-8.749c6.582,-4.928 11.692,-10.826 15.33,-17.695c3.638,-6.869 8.748,-23.537 8.748,-23.537c0,0 0.613,-4.768 2.903,-6.482c1.23,-0.921 2.391,-1.12 4.816,-1.12c1.221,0 3.154,-0.07 4.342,0.016c3.288,0.24 4.868,3.866 4.868,6.255l-0.534,48.171l57.695,-0.239c3.118,-0.299 5.196,0.448 6.236,2.24c1.039,1.792 1.559,3.882 1.559,6.272c0,2.986 -0.606,5.973 -1.819,8.959c-1.213,2.986 -2.685,4.48 -4.417,4.48l-58.201,0.506l0,134.332c0,8.661 2.165,16.575 6.496,23.742c4.33,7.167 5.652,10.751 17.084,10.751c3.811,0 8.141,-0.299 12.991,-0.896c4.85,-0.597 10.047,-1.941 15.589,-4.032c1.386,-0.597 2.771,-1.12 4.157,-1.568c1.386,-0.448 2.771,-0.672 4.157,-0.672c2.771,0 4.85,0.971 6.236,2.912c1.386,1.941 2.598,3.957 3.638,6.048c1.039,2.688 0.173,4.778 -2.598,6.272c-10.739,5.973 -20.613,9.855 -29.62,11.647c-9.007,1.792 -12.494,2.688 -23.58,2.688Z" style="fill:#6abccc;"/><path d="M1064.251,433.876c-21.132,0 -35.423,-5.226 -48.068,-15.679c-12.645,-10.453 -18.967,-22.996 -18.967,-37.629c0,-15.231 4.59,-27.177 13.771,-35.837c9.18,-8.661 21.306,-15.082 36.375,-19.263c15.07,-4.181 28.928,-7.018 46.769,-8.511c17.841,-1.493 35.25,-2.688 52.225,-3.584l0,-35.389c0,-14.036 -4.071,-25.011 -12.212,-32.926c-8.141,-7.914 -24.614,-11.802 -44.014,-11.802c-9.7,0 -19.14,2.34 -27.628,7.716c-8.488,5.376 -12.731,13.14 -12.731,23.294c0,4.778 1.386,8.81 4.157,12.095c2.771,3.285 5.543,5.824 8.314,7.615c2.771,1.792 4.157,2.986 4.157,3.584c0,1.195 -1.992,3.36 -5.976,6.496c-3.984,3.136 -6.946,4.704 -13.875,4.704c-10.739,0 -19.054,-3.434 -24.943,-10.303c-5.889,-6.869 -8.834,-14.484 -8.834,-22.846c0,-11.348 4.071,-20.308 12.212,-26.878c8.141,-6.57 18.621,-11.348 31.439,-14.335c12.818,-2.986 23.315,-4.48 36.48,-4.48c15.589,0 33.794,1.92 48.518,5.206c14.723,3.285 26.849,9.557 36.375,18.815c9.527,9.258 14.29,23.145 14.29,41.661l0,104.376c0.346,2.986 1.213,6.57 2.598,10.751c1.386,4.181 4.071,7.839 8.055,10.975c3.984,3.136 9.44,4.704 16.369,4.704c2.425,0 4.33,0.373 5.716,1.12c1.386,0.747 2.079,2.762 2.079,6.048c0,2.688 -1.732,4.778 -5.196,6.272c-3.464,1.493 -7.448,2.538 -11.952,3.136c-4.504,0.597 -8.314,0.896 -11.432,0.896c-12.818,0 -24.25,-3.21 -34.297,-9.631c-10.047,-6.421 -15.936,-15.306 -17.668,-26.654c-7.622,11.946 -18.967,20.98 -34.037,27.102c-15.07,6.122 -31.092,9.183 -48.068,9.183Zm16.629,-24.19c11.779,0 22.605,-2.538 32.478,-7.615c9.873,-5.077 17.841,-12.02 23.904,-20.83c6.063,-8.81 9.094,-18.591 9.094,-29.342l0,-25.534c-35.683,2.091 -61.145,7.018 -76.389,14.783c-15.243,7.765 -22.865,20.457 -22.865,38.077c0,20.308 11.259,30.462 33.777,30.462Z" style="fill:#6abccc;"/><path d="M1252.301,433.041c-2.425,0 -4.417,-0.971 -5.976,-2.912c-1.559,-1.941 -2.338,-3.957 -2.338,-6.048c0.346,-4.48 1.646,-6.943 3.897,-7.391c2.252,-0.448 4.937,-0.672 8.055,-0.672c9.7,0 13.929,-0.93 17.566,-3.768c3.638,-2.837 5.716,-6.645 6.236,-11.423c0.52,-4.778 0.779,-9.706 0.779,-14.783l0,-102.584c0,-5.376 -0.26,-10.378 -0.779,-15.007c-0.52,-4.629 -2.512,-8.362 -5.976,-11.199c-3.464,-2.837 -5.049,-4.256 -14.749,-4.256c-3.118,0 -5.976,-0.373 -8.574,-1.12c-2.598,-0.747 -3.897,-0.919 -3.897,-5.399c0,-4.48 2.771,-7.167 8.314,-8.063c15.936,-2.091 23.15,-4.181 31.637,-6.272c8.488,-2.091 14.897,-3.882 19.227,-5.376c4.33,-1.493 8.228,-2.389 11.692,-2.688c2.771,-0.299 5.11,0.149 7.015,1.344c1.905,1.195 2.858,3.584 2.858,7.167l0,25.781l1.559,0c6.929,-5.674 13.684,-11.124 20.266,-16.351c6.582,-5.226 14.55,-9.557 23.904,-12.991c9.354,-3.434 21.306,-5.152 35.856,-5.152c16.975,0 31.525,3.061 43.651,9.183c12.125,6.122 20.959,14.559 26.502,25.31l1.039,0c6.929,-5.674 14.204,-11.124 21.825,-16.351c7.622,-5.226 16.629,-9.557 27.022,-12.991c10.393,-3.434 22.865,-5.152 37.415,-5.152c23.557,0 42.265,6.122 56.122,18.367c13.857,12.244 20.786,28.371 20.786,48.38l0,95.417c0,5.077 0.26,10.005 0.779,14.783c0.52,4.778 2.598,8.586 6.236,11.423c3.638,2.837 10.306,4.256 20.007,4.256c3.118,0 5.803,0.224 8.055,0.672c2.252,0.448 3.551,2.912 3.897,7.391c0,2.091 -0.693,4.106 -2.079,6.048c-1.386,1.941 -3.464,2.912 -6.236,2.912c-10.047,-0.597 -19.314,-0.971 -27.801,-1.12c-8.488,-0.149 -17.408,-0.224 -26.762,-0.224c-9.354,0 -18.188,0.075 -26.502,0.224c-8.314,0.149 -17.495,0.523 -27.541,1.12c-2.771,0 -4.85,-0.971 -6.236,-2.912c-1.386,-1.941 -2.079,-3.957 -2.079,-6.048c0.346,-4.48 1.646,-6.943 3.897,-7.391c2.252,-0.448 4.937,-0.672 8.055,-0.672c9.7,0 16.369,-1.419 20.007,-4.256c3.638,-2.837 5.716,-6.645 6.236,-11.423c0.52,-4.778 0.779,-9.706 0.779,-14.783l0,-94.969c0,-9.855 -2.512,-17.919 -7.535,-24.19c-5.023,-6.272 -11.346,-10.901 -18.967,-13.887c-7.622,-2.986 -15.416,-4.48 -23.384,-4.48c-11.779,0 -21.825,1.867 -30.14,5.6c-8.314,3.733 -14.897,7.989 -19.747,12.767c-4.85,4.778 -8.314,8.959 -10.393,12.543l0,106.616c0,5.077 0.087,10.005 0.26,14.783c0.173,4.778 1.905,8.586 5.196,11.423c3.291,2.837 9.787,4.256 19.487,4.256c3.464,0 6.236,0.224 8.314,0.672c2.079,0.448 3.291,2.912 3.638,7.391c0,2.091 -0.693,4.106 -2.079,6.048c-1.386,1.941 -3.464,2.912 -6.236,2.912c-10.047,-0.597 -19.054,-0.971 -27.022,-1.12c-7.968,-0.149 -16.629,-0.224 -25.982,-0.224c-9.007,0 -17.408,0.075 -25.203,0.224c-7.795,0.149 -16.715,0.523 -26.762,1.12c-2.771,0 -4.85,-0.971 -6.236,-2.912c-1.386,-1.941 -2.079,-3.957 -2.079,-6.048c0.346,-4.48 1.559,-6.943 3.638,-7.391c2.079,-0.448 4.85,-0.672 8.314,-0.672c9.7,0 16.196,-1.419 19.487,-4.256c3.291,-2.837 5.023,-6.645 5.196,-11.423c0.173,-4.778 0.26,-9.706 0.26,-14.783l0,-94.969c0,-14.932 -5.196,-25.758 -15.589,-32.478c-10.393,-6.719 -21.652,-10.079 -33.777,-10.079c-12.125,0 -22.345,1.867 -30.659,5.6c-8.314,3.733 -14.897,7.989 -19.747,12.767c-4.85,4.778 -8.314,8.959 -10.393,12.543l0,106.616c0,5.077 0.26,10.005 0.779,14.783c0.52,4.778 2.598,8.586 6.236,11.423c3.638,2.837 10.306,4.256 20.007,4.256c3.118,0 5.803,0.224 8.055,0.672c2.252,0.448 3.551,2.912 3.897,7.391c0,2.091 -0.693,4.106 -2.079,6.048c-1.386,1.941 -3.464,2.912 -6.236,2.912c-10.047,-0.597 -19.314,-0.971 -27.801,-1.12c-8.488,-0.149 -17.408,-0.224 -26.762,-0.224c-9.354,0 -18.188,0.075 -26.502,0.224c-8.314,0.149 -15.054,0.035 -25.101,0.632Z" style="fill:#6abccc;"/><path d="M1927.49,433.707c-2.425,0 -4.417,-0.971 -5.976,-2.912c-1.559,-1.941 -2.338,-3.957 -2.338,-6.048c0.693,-4.48 2.079,-6.943 4.157,-7.391c2.079,-0.448 4.85,-0.672 8.314,-0.672c9.7,0 16.282,-1.419 19.747,-4.256c3.464,-2.837 5.456,-6.645 5.976,-11.423c0.52,-4.778 0.779,-9.706 0.779,-14.783l0,-102.584c0,-5.376 -0.26,-10.378 -0.779,-15.007c-0.52,-4.629 -2.512,-8.362 -5.976,-11.199c-3.464,-2.837 -5.361,-4.256 -15.061,-4.256c-3.118,0 -5.976,-0.373 -8.574,-1.12c-2.598,-0.747 -3.897,-3.36 -3.897,-7.839c0,-4.48 2.771,-7.167 8.314,-8.063c15.936,-2.091 23.462,-4.181 31.95,-6.272c8.488,-2.091 14.897,-3.882 19.227,-5.376c4.33,-1.493 8.228,-2.389 11.692,-2.688c2.771,-0.299 5.11,0.149 7.015,1.344c1.905,1.195 2.858,3.584 2.858,7.167l0,28.222l1.559,0c6.929,-5.674 14.031,-11.124 21.306,-16.351c7.275,-5.226 15.849,-9.557 25.723,-12.991c9.873,-3.434 22.085,-5.152 36.635,-5.152c23.557,0 42.265,6.122 56.122,18.367c13.857,12.244 20.786,28.371 20.786,48.38l0,95.417c0,5.077 0.26,10.005 0.779,14.783c0.52,4.778 2.598,8.586 6.236,11.423c3.638,2.837 10.306,4.256 20.007,4.256c3.118,0 5.803,0.224 8.055,0.672c2.252,0.448 3.551,2.912 3.897,7.391c0,2.091 -0.693,4.106 -2.079,6.048c-1.386,1.941 -3.464,2.912 -6.236,2.912c-10.047,-0.597 -19.314,-0.971 -27.801,-1.12c-8.488,-0.149 -17.408,-0.224 -26.762,-0.224c-9.354,0 -18.188,0.075 -26.502,0.224c-8.314,0.149 -17.495,0.523 -27.541,1.12c-2.425,0 -4.417,-0.971 -5.976,-2.912c-1.559,-1.941 -2.338,-3.957 -2.338,-6.048c0.346,-4.48 1.646,-6.943 3.897,-7.391c2.252,-0.448 4.937,-0.672 8.055,-0.672c9.7,0 16.369,-1.419 20.007,-4.256c3.638,-2.837 5.716,-6.645 6.236,-11.423c0.52,-4.778 0.779,-9.706 0.779,-14.783l0,-94.969c0,-9.855 -2.512,-17.919 -7.535,-24.19c-5.023,-6.272 -11.346,-10.901 -18.967,-13.887c-7.622,-2.986 -15.416,-4.48 -23.384,-4.48c-11.779,0 -22.172,1.867 -31.179,5.6c-9.007,3.733 -16.282,7.989 -21.825,12.767c-5.543,4.778 -9.354,8.959 -11.432,12.543l0,106.616c-0,5.077 0.26,10.005 0.779,14.783c0.52,4.778 2.598,8.586 6.236,11.423c3.638,2.837 10.306,4.256 20.007,4.256c3.118,0 5.803,0.224 8.055,0.672c2.252,0.448 3.551,2.912 3.897,7.391c0,2.091 -0.693,4.106 -2.079,6.048c-1.386,1.941 -3.464,2.912 -6.236,2.912c-10.047,-0.597 -19.314,-0.971 -27.801,-1.12c-8.488,-0.149 -17.408,-0.224 -26.762,-0.224c-9.354,0 -18.188,0.075 -26.502,0.224c-8.314,0.149 -17.495,0.523 -27.541,1.12Z" style="fill:#6abccc;"/></g><g><path d="M590.649,588.145c-9.789,0 -18.684,-1.86 -26.684,-5.581c-8.001,-3.721 -14.283,-8.827 -18.848,-15.32c-4.565,-6.492 -6.848,-13.725 -6.848,-21.698c0,-7.973 2.283,-15.206 6.848,-21.698c4.565,-6.492 10.848,-11.599 18.848,-15.32c8.001,-3.721 16.895,-5.581 26.684,-5.581c7.53,0 14.425,1.158 20.684,3.474c6.259,2.316 11.695,5.6 16.307,9.852l-8.612,6.72c-3.859,-3.721 -8.071,-6.454 -12.636,-8.201c-4.565,-1.746 -9.812,-2.62 -15.742,-2.62c-7.342,0 -14.072,1.386 -20.19,4.157c-6.118,2.772 -10.989,6.682 -14.613,11.732c-3.624,5.05 -5.436,10.878 -5.436,17.484c0,6.606 1.812,12.434 5.436,17.484c3.624,5.05 8.495,8.96 14.613,11.732c6.118,2.772 12.848,4.157 20.19,4.157c12.236,0 22.637,-4.062 31.202,-12.187l8.754,6.834c-4.706,4.48 -10.495,8.03 -17.366,10.65c-6.871,2.62 -14.401,3.93 -22.59,3.93Z" style="fill:#6abccc;"/><path d="M672.255,528.234l11.436,0l0,9.34l0.565,0c1.412,-3.189 4.141,-5.828 8.189,-7.916c4.047,-2.088 8.283,-3.132 12.707,-3.132c3.294,0 6.118,0.38 8.471,1.139l0,10.479c-3.012,-1.215 -6.4,-1.822 -10.165,-1.822c-3.483,0 -6.683,0.797 -9.601,2.392c-2.918,1.595 -5.247,3.74 -6.989,6.435c-1.741,2.696 -2.612,5.6 -2.612,8.713l0,32.462l-12.001,0l0,-58.089Z" style="fill:#6abccc;"/><path d="M781.251,588.145c-6.871,0 -13.036,-1.329 -18.495,-3.987c-5.459,-2.658 -9.718,-6.321 -12.777,-10.991c-3.059,-4.67 -4.589,-9.928 -4.589,-15.775c0,-5.619 1.435,-10.783 4.306,-15.491c2.871,-4.708 6.942,-8.467 12.213,-11.276c5.271,-2.81 11.389,-4.214 18.354,-4.214c7.059,0 13.177,1.272 18.354,3.816c5.177,2.544 9.154,6.056 11.93,10.536c2.777,4.48 4.165,9.606 4.165,15.377c0,1.139 -0.141,2.126 -0.424,2.961l-56.757,0c0,4.404 1.184,8.125 3.552,11.162c2.368,3.037 5.375,5.315 9.02,6.834c3.647,1.519 7.46,2.278 11.438,2.278c9.282,0 16.432,-3.493 21.452,-10.479l10.165,3.987c-3.106,4.708 -7.318,8.429 -12.636,11.162c-5.318,2.734 -11.742,4.1 -19.272,4.1Zm20.613,-37.018c0,-2.43 -0.756,-4.86 -2.268,-7.29c-1.51,-2.43 -3.894,-4.48 -7.152,-6.151c-3.258,-1.671 -7.342,-2.506 -12.252,-2.506c-5.665,0 -10.457,1.462 -14.377,4.385c-3.918,2.923 -6.491,6.777 -7.719,11.561l43.768,0Z" style="fill:#6abccc;"/><path d="M880.646,588.145c-5.271,0 -9.977,-0.835 -14.119,-2.506c-4.141,-1.671 -7.342,-3.968 -9.601,-6.891c-2.259,-2.923 -3.388,-6.246 -3.388,-9.966c0,-6.151 2.871,-10.953 8.612,-14.408c5.742,-3.455 12.989,-5.182 21.743,-5.182c4.33,0 8.354,0.38 12.071,1.139c3.718,0.759 6.565,1.633 8.542,2.62l0,-3.531c0,-4.328 -1.882,-7.802 -5.647,-10.422c-3.765,-2.62 -8.518,-3.93 -14.26,-3.93c-4.047,0 -7.765,0.702 -11.154,2.107c-3.388,1.405 -6.071,3.36 -8.048,5.866l-9.036,-5.467c2.824,-3.493 6.706,-6.227 11.648,-8.201c4.942,-1.974 10.424,-2.961 16.448,-2.961c9.789,0 17.484,2.069 23.084,6.208c5.6,4.138 8.401,9.776 8.401,16.914l0,36.79l-11.436,0l0,-8.315l-0.565,0c-2.071,2.81 -5.177,5.201 -9.318,7.176c-4.141,1.974 -8.801,2.961 -13.977,2.961Zm1.129,-8.543c4.047,0 7.812,-0.835 11.295,-2.506c3.483,-1.671 6.259,-3.911 8.33,-6.72c2.071,-2.81 3.106,-5.885 3.106,-9.226c-2.259,-1.215 -5.036,-2.202 -8.33,-2.961c-3.294,-0.759 -6.777,-1.139 -10.448,-1.139c-6.589,0 -11.554,1.101 -14.895,3.303c-3.341,2.202 -5.012,5.05 -5.012,8.543c0,3.189 1.506,5.771 4.518,7.745c3.012,1.974 6.824,2.961 11.436,2.961Z" style="fill:#6abccc;"/><path d="M987.101,587.234c-2.918,0 -5.624,-0.38 -8.118,-1.139c-2.494,-0.759 -4.589,-1.784 -6.283,-3.075c-1.882,-1.443 -3.294,-3.113 -4.236,-5.012c-0.941,-1.898 -1.412,-4.214 -1.412,-6.948l0,-34.056l-12.566,0l0,-8.77l12.566,0l0,-16.402l12.001,0l0,16.402l17.507,0l0,8.77l-17.507,0l0,31.664c0,3.189 0.753,5.543 2.259,7.062c1.788,1.671 4.377,2.506 7.765,2.506c2.73,0 5.365,-0.645 7.906,-1.936l0,9.454c-1.412,0.532 -2.847,0.911 -4.306,1.139c-1.459,0.228 -3.318,0.342 -5.577,0.342Z" style="fill:#6abccc;"/><path d="M1047.105,517.527c-2.353,0 -4.377,-0.683 -6.071,-2.05c-1.694,-1.367 -2.541,-2.999 -2.541,-4.898c0,-1.898 0.847,-3.512 2.541,-4.841c1.694,-1.329 3.718,-1.993 6.071,-1.993c2.353,0 4.377,0.664 6.071,1.993c1.694,1.329 2.541,2.942 2.541,4.841c0,1.898 -0.824,3.531 -2.471,4.898c-1.647,1.367 -3.694,2.05 -6.142,2.05Zm-5.93,10.707l11.86,0l0,58.089l-11.86,0l0,-58.089Z" style="fill:#6abccc;"/><path d="M1092.285,528.234l12.848,0l22.307,46.699l0.282,0l22.59,-46.699l12.566,0l-29.367,58.089l-12.142,0l-29.084,-58.089Z" style="fill:#6abccc;"/><path d="M1230.93,588.145c-6.871,0 -13.036,-1.329 -18.495,-3.987c-5.459,-2.658 -9.718,-6.321 -12.777,-10.991c-3.059,-4.67 -4.589,-9.928 -4.589,-15.775c0,-5.619 1.435,-10.783 4.306,-15.491c2.871,-4.708 6.942,-8.467 12.213,-11.276c5.271,-2.81 11.389,-4.214 18.354,-4.214c7.059,0 13.177,1.272 18.354,3.816c5.177,2.544 9.154,6.056 11.93,10.536c2.777,4.48 4.165,9.606 4.165,15.377c0,1.139 -0.141,2.126 -0.424,2.961l-56.757,0c0,4.404 1.184,8.125 3.552,11.162c2.368,3.037 5.375,5.315 9.02,6.834c3.647,1.519 7.46,2.278 11.438,2.278c9.282,0 16.432,-3.493 21.452,-10.479l10.165,3.987c-3.106,4.708 -7.318,8.429 -12.636,11.162c-5.318,2.734 -11.742,4.1 -19.272,4.1Zm20.613,-37.018c0,-2.43 -0.756,-4.86 -2.268,-7.29c-1.51,-2.43 -3.894,-4.48 -7.152,-6.151c-3.258,-1.671 -7.342,-2.506 -12.252,-2.506c-5.665,0 -10.457,1.462 -14.377,4.385c-3.918,2.923 -6.491,6.777 -7.719,11.561l43.768,0Z" style="fill:#6abccc;"/><path d="M1394,588.145c-7.906,0 -15.154,-1.936 -21.743,-5.809c-6.589,-3.873 -11.107,-9.302 -13.554,-16.288l11.436,-3.759c1.6,4.86 4.565,8.846 8.895,11.96c4.33,3.113 9.412,4.67 15.248,4.67c5.836,0 10.777,-1.272 14.825,-3.816c4.047,-2.544 6.071,-6.018 6.071,-10.422c0,-3.797 -1.718,-6.929 -5.153,-9.397c-3.436,-2.468 -9.059,-4.765 -16.872,-6.891l-6.353,-1.822c-7.153,-2.05 -12.989,-4.746 -17.507,-8.087c-4.518,-3.341 -6.777,-7.973 -6.777,-13.896c0,-3.873 1.318,-7.461 3.953,-10.764c2.635,-3.303 6.306,-5.942 11.013,-7.916c4.706,-1.974 9.977,-2.961 15.813,-2.961c5.836,0 10.918,0.873 15.248,2.62c4.33,1.746 7.789,3.873 10.377,6.378c2.588,2.506 4.4,4.974 5.436,7.404l-11.295,3.873c-0.941,-2.81 -3.083,-5.353 -6.424,-7.631c-3.341,-2.278 -7.742,-3.417 -13.201,-3.417c-5.177,0 -9.601,1.177 -13.272,3.531c-3.671,2.354 -5.506,5.315 -5.506,8.884c0,3.189 1.553,5.79 4.659,7.802c3.106,2.012 7.812,3.892 14.119,5.638l6.636,1.822c8.565,2.506 15.248,5.638 20.048,9.397c4.8,3.759 7.201,8.865 7.201,15.32c0,5.239 -1.671,9.644 -5.012,13.212c-3.341,3.569 -7.553,6.189 -12.636,7.859c-5.083,1.671 -10.307,2.506 -15.672,2.506Z" style="fill:#6abccc;"/><path d="M1494.949,587.234c-2.918,0 -5.624,-0.38 -8.118,-1.139c-2.494,-0.759 -4.589,-1.784 -6.283,-3.075c-1.882,-1.443 -3.294,-3.113 -4.236,-5.012c-0.941,-1.898 -1.412,-4.214 -1.412,-6.948l0,-34.056l-12.566,0l0,-8.77l12.566,0l0,-16.402l12.001,0l0,16.402l17.507,0l0,8.77l-17.507,0l0,31.664c0,3.189 0.753,5.543 2.259,7.062c1.788,1.671 4.377,2.506 7.765,2.506c2.73,0 5.365,-0.645 7.906,-1.936l0,9.454c-1.412,0.532 -2.847,0.911 -4.306,1.139c-1.459,0.228 -3.318,0.342 -5.577,0.342Z" style="fill:#6abccc;"/><path d="M1573.307,588.145c-8.659,0 -15.272,-2.05 -19.837,-6.151c-4.565,-4.1 -6.848,-9.833 -6.848,-17.199l0,-36.562l12.001,0l0,35.081c0,5.543 1.553,9.606 4.659,12.187c3.106,2.582 7.295,3.873 12.566,3.873c4.047,0 7.648,-0.873 10.801,-2.62c3.153,-1.746 5.6,-4.024 7.342,-6.834c1.741,-2.81 2.612,-5.771 2.612,-8.884l0,-32.803l12.001,0l0,58.089l-11.436,0l0,-8.429l-0.565,0c-1.977,2.885 -5.13,5.315 -9.459,7.29c-4.33,1.974 -8.942,2.961 -13.836,2.961Z" style="fill:#6abccc;"/><path d="M1684.421,588.145c-6.4,0 -12.213,-1.329 -17.437,-3.987c-5.224,-2.658 -9.342,-6.321 -12.354,-10.991c-3.012,-4.67 -4.518,-9.966 -4.518,-15.889c0,-5.847 1.506,-11.124 4.518,-15.832c3.012,-4.708 7.13,-8.391 12.354,-11.048c5.224,-2.658 11.036,-3.987 17.437,-3.987c5.553,0 10.495,1.006 14.825,3.018c4.33,2.012 7.624,4.499 9.883,7.461l0.565,0l-0.565,-8.087l0,-24.033l12.001,0l0,81.553l-11.436,0l0,-8.543l-0.565,0c-2.259,2.885 -5.553,5.334 -9.883,7.347c-4.33,2.012 -9.271,3.018 -14.825,3.018Zm1.412,-8.77c4.236,0 8.165,-0.911 11.789,-2.734c3.624,-1.822 6.542,-4.404 8.754,-7.745c2.212,-3.341 3.318,-7.214 3.318,-11.618c0,-4.404 -1.106,-8.277 -3.318,-11.618c-2.212,-3.341 -5.13,-5.923 -8.754,-7.745c-3.624,-1.822 -7.553,-2.734 -11.789,-2.734c-4.141,0 -8.048,0.911 -11.718,2.734c-3.671,1.822 -6.612,4.423 -8.824,7.802c-2.212,3.379 -3.318,7.233 -3.318,11.561c0,4.328 1.106,8.182 3.318,11.561c2.212,3.379 5.153,5.98 8.824,7.802c3.671,1.822 7.577,2.734 11.718,2.734Z" style="fill:#6abccc;"/><path d="M1774.215,517.527c-2.353,0 -4.377,-0.683 -6.071,-2.05c-1.694,-1.367 -2.541,-2.999 -2.541,-4.898c0,-1.898 0.847,-3.512 2.541,-4.841c1.694,-1.329 3.718,-1.993 6.071,-1.993c2.353,0 4.377,0.664 6.071,1.993c1.694,1.329 2.541,2.942 2.541,4.841c0,1.898 -0.824,3.531 -2.471,4.898c-1.647,1.367 -3.694,2.05 -6.142,2.05Zm-5.93,10.707l11.86,0l0,58.089l-11.86,0l0,-58.089Z" style="fill:#6abccc;"/><path d="M1859.774,588.145c-7.059,0 -13.413,-1.367 -19.06,-4.1c-5.647,-2.734 -10.048,-6.454 -13.201,-11.162c-3.153,-4.708 -4.73,-9.909 -4.73,-15.604c0,-5.695 1.577,-10.897 4.73,-15.604c3.153,-4.708 7.553,-8.429 13.201,-11.162c5.647,-2.734 12.001,-4.1 19.06,-4.1c7.059,0 13.413,1.367 19.06,4.1c5.647,2.734 10.048,6.454 13.201,11.162c3.153,4.708 4.73,9.909 4.73,15.604c0,5.695 -1.577,10.897 -4.73,15.604c-3.153,4.708 -7.553,8.429 -13.201,11.162c-5.647,2.734 -12.001,4.1 -19.06,4.1Zm0,-8.77c4.424,0 8.542,-0.892 12.354,-2.677c3.812,-1.784 6.871,-4.347 9.177,-7.688c2.306,-3.341 3.459,-7.252 3.459,-11.732c0,-4.48 -1.153,-8.391 -3.459,-11.732c-2.306,-3.341 -5.365,-5.904 -9.177,-7.688c-3.812,-1.784 -7.93,-2.677 -12.354,-2.677c-4.424,0 -8.565,0.892 -12.424,2.677c-3.859,1.784 -6.942,4.347 -9.248,7.688c-2.306,3.341 -3.459,7.252 -3.459,11.732c0,4.48 1.153,8.391 3.459,11.732c2.306,3.341 5.389,5.904 9.248,7.688c3.859,1.784 8.001,2.677 12.424,2.677Z" style="fill:#6abccc;"/></g></g><g><path d="M2364.103,137.039l-9.023,0l0,23.842l-3.662,0l0,-23.842l-9.002,0l0,-2.827l21.687,0l0,2.827Z" style="fill:#6abccc;fill-opacity:0.75;"/><path d="M2400.427,160.881l-3.64,0l0,-17.891c0,-1.413 0.102,-3.143 0.305,-5.189l-0.087,0c-0.349,1.203 -0.661,2.064 -0.937,2.585l-10.68,20.494l-1.787,0l-10.658,-20.346c-0.305,-0.595 -0.618,-1.506 -0.937,-2.734l-0.087,0c0.116,1.066 0.174,2.808 0.174,5.226l0,17.854l-3.531,0l0,-26.669l4.839,0l9.59,18.597c0.741,1.426 1.221,2.492 1.439,3.199l0.131,0c0.625,-1.463 1.126,-2.554 1.504,-3.273l9.786,-18.523l4.577,0l0,26.669Z" style="fill:#6abccc;fill-opacity:0.75;"/></g><path d="M1184.828,141.412c1.753,-0.105 8.419,0.768 15.57,-4.815c3.917,-3.058 9.86,-11.988 2.351,-22.743c-2.586,-3.704 -4.154,-3.798 -2.153,-7.787c1.25,-2.492 14.938,-29.782 16.953,-30.544c1.596,-0.604 3.569,3.998 15.129,25.38c3.854,7.128 4.82,7.786 1.856,11.393c-18.76,22.829 22.243,42.908 35.411,17.07c2.99,-5.866 3.99,-5.117 10.213,-8.139c16.152,-7.844 23.778,-12.208 22.671,-9.564c-2.298,5.489 -13.631,23.257 -24.294,61.777c-0.42,1.516 -0.806,4.059 -2.363,4.064c-9.363,0.032 -116.559,0.395 -117.036,-0.16c-0.815,-0.949 -6.66,-31.374 -24.042,-60.218c-0.411,-0.683 -4.397,-6.286 -2.471,-6.367c0.35,-0.015 30.397,13.645 31.224,14.972c4.402,7.062 5.086,13.793 20.982,15.682Z" style="fill:#6abccc;"/></g></svg>